HIERARCHY
ROOT Hips
{
	OFFSET 0.00000 0.00000 0.00000
	CHANNELS 6 Xposition Yposition Zposition Zrotation Yrotation Xrotation 
	JOINT LHipJoint
	{
		OFFSET 0 0 0
		CHANNELS 3 Zrotation Yrotation Xrotation
		JOINT LeftHip
		{
			OFFSET 1.74857 -1.85566 0.69197
			CHANNELS 3 Zrotation Yrotation Xrotation
			JOINT LeftKnee
			{
				OFFSET 2.40003 -6.59403 0.00000
				CHANNELS 3 Zrotation Yrotation Xrotation
				JOINT LeftAnkle
				{
					OFFSET 2.82169 -7.75254 0.00000
					CHANNELS 3 Zrotation Yrotation Xrotation
					JOINT LeftToe
					{
						OFFSET 0.16466 -0.45240 2.26890
						CHANNELS 3 Zrotation Yrotation Xrotation
						End Site
						{
							OFFSET 0.00000 -0.00000 1.16486
						}
					}
				}
			}
		}
	}
	JOINT RHipJoint
	{
		OFFSET 0 0 0
		CHANNELS 3 Zrotation Yrotation Xrotation
		JOINT RightHip
		{
			OFFSET -1.64169 -1.85566 0.69197
			CHANNELS 3 Zrotation Yrotation Xrotation
			JOINT RightKnee
			{
				OFFSET -2.41814 -6.64379 0.00000
				CHANNELS 3 Zrotation Yrotation Xrotation
				JOINT RightAnkle
				{
					OFFSET -2.80588 -7.70911 0.00000
					CHANNELS 3 Zrotation Yrotation Xrotation
					JOINT RightToe
					{
						OFFSET -0.19098 -0.52472 2.25401
						CHANNELS 3 Zrotation Yrotation Xrotation
						End Site
						{
							OFFSET -0.00000 -0.00000 1.16333
						}
					}
				}
			}
		}
	}
	JOINT lowerback
	{
		OFFSET 0 0 0
		CHANNELS 3 Zrotation Yrotation Xrotation
		JOINT Chest
		{
			OFFSET -0.02828 2.14690 -0.11061
			CHANNELS 3 Zrotation Yrotation Xrotation
			JOINT Chest2
			{
				OFFSET -0.00167 2.15299 0.00759
				CHANNELS 3 Zrotation Yrotation Xrotation
				JOINT lowerneck
				{
					OFFSET 0 0 0
					CHANNELS 3 Zrotation Yrotation Xrotation
					JOINT Neck
					{
						OFFSET -0.09296 1.90118 0.07197
						CHANNELS 3 Zrotation Yrotation Xrotation
						JOINT Head
						{
							OFFSET 0.08490 1.89526 -0.24604
							CHANNELS 3 Zrotation Yrotation Xrotation
							End Site
							{
								OFFSET 0.03186 1.92109 -0.09483
							}
						}
					}
				}
				JOINT LeftCollar
				{
					OFFSET 0 0 0
					CHANNELS 3 Zrotation Yrotation Xrotation
					JOINT LeftShoulder
					{
						OFFSET 3.21569 1.44644 -0.03720
CHANNELS 3 Zrotation Xrotation Yrotation
						JOINT LeftElbow
						{
OFFSET 0 -5.476510 -0.000000
CHANNELS 3 Zrotation Xrotation Yrotation
							JOINT LeftWrist
							{
OFFSET 0 -3.090580 -0.000000
CHANNELS 3 Zrotation Xrotation Yrotation
								JOINT lhand
								{
									OFFSET 0 0 0
CHANNELS 3 Zrotation Xrotation Yrotation
									JOINT LFingers
									{
OFFSET 0 -0.771610 -0.000000
CHANNELS 3 Zrotation Xrotation Yrotation
										End Site
										{
OFFSET 0 -0.622090 -0.000000
										}
									}
								}
								JOINT LThumb
								{
OFFSET 0 0.000000 0.000000
CHANNELS 3 Zrotation Xrotation Yrotation
									End Site
									{
OFFSET 0 -0.631590 0.631590
									}
								}
							}
						}
					}
				}
				JOINT RightCollar
				{
					OFFSET 0 0 0
					CHANNELS 3 Zrotation Yrotation Xrotation
					JOINT RightShoulder
					{
						OFFSET -3.38693 1.28904 -0.07093
CHANNELS 3 Zrotation Xrotation Yrotation
						JOINT RightElbow
						{
OFFSET 0 -5.141820 -0.000000
CHANNELS 3 Zrotation Xrotation Yrotation
							JOINT RightWrist
							{
OFFSET 0 -3.355650 -0.000000
CHANNELS 3 Zrotation Xrotation Yrotation
								JOINT rhand
								{
									OFFSET 0 0 0
CHANNELS 3 Zrotation Xrotation Yrotation
									JOINT RFingers
									{
OFFSET 0 -0.801040 -0.000000
CHANNELS 3 Zrotation Xrotation Yrotation
										End Site
										{
OFFSET 0 -0.645820 -0.000000
										}
									}
								}
								JOINT RThumb
								{
OFFSET 0 0.000000 0.000000
CHANNELS 3 Zrotation Xrotation Yrotation
									End Site
									{
OFFSET 0 -0.655680 0.655680
									}
								}
							}
						}
					}
				}
			}
		}
	}
}
MOTION
Frames: 5
Frame Time: 0.008333333333333333
0.074600 18.091400 -1.236100 1.398200 -3.198600 1.583900 0.000000 0.000000 0.000000 -20.520400 -5.308800 -5.559400 1.139600 6.779400 19.063500 0.604400 6.701900 -18.637000 0.689100 -5.307100 -14.786600 0.000000 0.000000 0.000000 16.869500 10.118400 -5.704800 -1.299000 -7.220600 20.370700 -0.362500 -8.151100 -17.149600 -0.360300 3.856100 -10.672100 -0.123600 2.727000 2.931600 -0.092500 3.629100 0.792100 -0.155900 1.813500 -0.830400 -6.201500 -4.791100 -2.491300 3.491900 -6.351400 7.481500 1.995000 -3.214500 3.212900 -0.000000 -0.000000 0.000000 11.717600 -18.136700 -66.645300 120.928100 -56.057500 86.430000 31.384100 -6.786300 -9.753500 0.000000 0.000000 0.000000 -7.125000 0.000000 0.000000 3.924100 41.332500 0.355600 -0.000000 -0.000000 0.000000 -41.920200 -33.755600 28.930100 -119.133400 -56.536500 -84.936900 -28.430600 -47.131800 -27.780000 0.000000 0.000000 0.000000 7.125000 0.000000 -0.000000 1.129200 -0.938400 1.147800
0.055643 18.094697 -1.219294 1.333754 -3.132099 1.790507 0.000000 0.000000 0.000000 -20.365401 -5.388945 -5.650459 1.130831 6.754143 18.988877 0.602688 6.693489 -18.611826 0.714703 -5.402633 -15.060608 0.000000 0.000000 0.000000 16.960762 9.976326 -5.909298 -1.298637 -7.219731 20.368094 -0.370097 -8.058863 -17.151796 -0.341626 3.755818 -10.390605 -0.247650 2.800643 3.084225 -0.129033 3.722454 0.678105 -0.139817 1.860086 -1.037747 -6.606062 -4.891952 -2.560367 3.934890 -6.494846 7.457146 2.209570 -3.282260 3.266485 0.000000 0.000000 0.000000 13.562449 -14.195608 -65.629987 120.904326 -56.064070 86.410266 26.799510 -9.281616 -10.676584 0.000000 0.000000 0.000000 -7.125000 0.000000 0.000000 -0.243712 41.906020 -0.018279 0.000000 0.000000 0.000000 -35.049155 -26.075686 34.924249 -121.798532 -55.811165 -87.151032 -27.909149 -45.063142 -28.262790 0.000000 0.000000 0.000000 7.125000 0.000000 0.000000 1.514753 -1.325480 1.549904
0.032312 18.089780 -1.203966 1.402843 -3.091757 1.912672 0.000000 0.000000 0.000000 -20.350502 -5.429782 -5.796966 1.144419 6.793092 19.103859 0.612934 6.605736 -18.652635 0.731611 -5.464873 -15.239339 0.000000 0.000000 0.000000 16.946900 10.041003 -6.101824 -1.326205 -7.293045 20.586480 -0.374620 -8.150337 -17.296085 -0.342606 3.761159 -10.405725 -0.435917 2.895628 3.608949 -0.244011 3.837175 0.520191 -0.192280 1.917535 -1.497350 -6.362190 -4.995233 -2.438417 3.747798 -6.632144 7.108404 2.100106 -3.348379 3.110555 0.000000 0.000000 0.000000 15.454801 -9.461690 -65.032319 119.912140 -56.333210 85.585730 23.142865 -9.759772 -12.405027 0.000000 0.000000 0.000000 -7.125000 0.000000 0.000000 -3.753488 43.400570 -0.146998 0.000000 0.000000 0.000000 -29.115682 -18.107039 39.523697 -121.875493 -55.788938 -87.214654 -28.204172 -45.172709 -29.292221 0.000000 0.000000 0.000000 7.125000 0.000000 0.000000 1.519350 -2.489920 1.584492
0.020626 18.079455 -1.184852 1.275163 -2.708007 1.982484 0.000000 0.000000 0.000000 -20.142205 -5.676531 -6.059347 1.204850 6.963943 19.608573 0.660490 6.218655 -18.858810 0.710276 -5.386010 -15.012869 0.000000 0.000000 0.000000 17.107116 9.650214 -6.331663 -1.357698 -7.375687 20.833177 -0.401403 -8.024026 -17.495970 -0.343433 3.765451 -10.417656 -0.389611 2.864469 3.870287 -0.151173 3.797444 0.620252 -0.132371 1.897318 -1.543933 -6.427129 -4.932893 -2.651489 3.738944 -6.528829 6.995506 2.109484 -3.296116 3.108634 0.000000 0.000000 0.000000 16.590770 -4.960154 -64.796838 118.622655 -56.665917 84.510440 20.110161 -11.286782 -16.721011 0.000000 0.000000 0.000000 -7.125000 0.000000 0.000000 -7.434967 47.579932 0.479513 0.000000 0.000000 0.000000 -23.723954 -10.243194 41.955021 -120.113584 -56.279469 -85.753359 -26.854213 -41.759012 -29.841945 0.000000 0.000000 0.000000 7.125000 0.000000 0.000000 2.390171 -2.736706 2.503767
0.003051 18.061669 -1.173336 1.117063 -2.089393 1.928802 0.000000 0.000000 0.000000 -19.862959 -6.054793 -6.404953 1.305360 7.237854 20.421844 0.694342 5.779970 -18.889673 0.746392 -5.518703 -15.394059 0.000000 0.000000 0.000000 17.370644 9.387415 -6.451022 -1.409788 -7.510037 21.235412 -0.428846 -8.114543 -17.904770 -0.327670 3.679337 -10.176228 -0.486001 2.803565 4.275317 0.092662 3.713820 0.846585 0.159993 1.855911 -1.560049 -6.405291 -4.921949 -2.681518 3.483417 -6.486301 6.553260 2.023239 -3.278479 2.947322 0.000000 0.000000 0.000000 17.120939 -0.481304 -64.580718 116.178811 -57.244984 82.461793 17.004117 -14.058140 -17.717864 0.000000 0.000000 0.000000 -7.125000 0.000000 0.000000 -10.641248 48.162727 0.839166 0.000000 0.000000 0.000000 -19.332428 -2.618043 43.532199 -118.262691 -56.755308 -84.209601 -28.683099 -41.447479 -28.655112 0.000000 0.000000 0.000000 7.125000 0.000000 0.000000 1.131464 -1.933650 1.169299
